<svg xmlns="http://www.w3.org/2000/svg" width="640" height="400" viewBox="0 0 640 400" role="img" aria-label="Devices illustration">
  <defs>
    <linearGradient id="bg" x1="0" x2="1" y1="0" y2="1">
      <stop offset="0" stop-color="#eef2ff"/>
      <stop offset="1" stop-color="#e0e7ff"/>
    </linearGradient>
    <linearGradient id="g" x1="0" x2="1" y1="0" y2="1">
      <stop offset="0" stop-color="#5a67d8"/>
      <stop offset="1" stop-color="#434190"/>
    </linearGradient>
  </defs>
  <rect width="640" height="400" rx="24" fill="url(#bg)"/>
  <g transform="translate(80,60)">
    <rect x="0" y="0" width="360" height="240" rx="14" fill="#fff" stroke="#c7d2fe"/>
    <rect x="20" y="24" width="320" height="28" rx="6" fill="#eef2ff"/>
    <rect x="20" y="72" width="160" height="110" rx="10" fill="#f8fafc" stroke="#e5e7eb"/>
    <rect x="200" y="72" width="140" height="110" rx="10" fill="#f8fafc" stroke="#e5e7eb"/>
    <rect x="130" y="210" width="100" height="10" rx="3" fill="#c7d2fe"/>
  </g>
  <g transform="translate(470,120)">
    <rect x="0" y="0" width="90" height="150" rx="16" fill="#fff" stroke="#c7d2fe"/>
    <rect x="12" y="16" width="66" height="14" rx="6" fill="#eef2ff"/>
    <rect x="12" y="40" width="66" height="80" rx="8" fill="#f8fafc" stroke="#e5e7eb"/>
    <circle cx="45" cy="130" r="6" fill="url(#g)"/>
  </g>
</svg>

